<?xml version="1.0" encoding="utf-8"?>
<!-- Generator: Adobe Illustrator 27.3.1, SVG Export Plug-In . SVG Version: 6.00 Build 0)  -->
<svg version="1.1" id="Layer_1" xmlns="http://www.w3.org/2000/svg" xmlns:xlink="http://www.w3.org/1999/xlink" x="0px" y="0px"
	 viewBox="0 0 90.5 106.31" style="enable-background:new 0 0 90.5 106.31;" xml:space="preserve">
<style type="text/css">
	.st0{fill:#464545;}
</style>
<g>
	<path class="st0" d="M31.98,96.27c0,2.45-1.52,3.94-3.61,3.94c-1.13,0-1.93-0.49-2.38-1.16v3.4c0,0.55-0.45,1-1,1h0
		c-0.55,0-1-0.45-1-1V92.4l1.53-0.07c0.15,0.49,0.25,1.37,0.25,1.62h0.03c0.41-0.93,1.26-1.65,2.68-1.65
		C30.59,92.3,31.98,93.93,31.98,96.27z M29.96,96.27c0-1.39-0.77-2.3-1.98-2.3c-1.26,0-1.99,1.08-1.99,2.06v0.46
		c0,0.95,0.69,2.06,2.06,2.06C29.2,98.54,29.96,97.64,29.96,96.27z"/>
</g>
<g>
	<path class="st0" d="M39.22,92.79l-0.51,1.94c-0.23-0.16-0.49-0.24-0.83-0.24c-0.87,0-1.67,0.7-1.67,2.09v3.82h-1.99v-7.71
		l1.53-0.07c0.15,0.54,0.25,1.4,0.25,1.73h0.05c0.29-0.98,0.93-1.76,2.07-1.76C38.54,92.59,38.89,92.66,39.22,92.79z"/>
</g>
<g>
	<path class="st0" d="M46.43,99.09l1.01,1.09c-0.59,0.77-1.72,1.37-3.27,1.37c-2.56,0-4.12-1.62-4.12-3.94
		c0-2.32,1.54-3.97,3.9-3.97c2.25,0,3.54,1.55,3.54,3.63c0,0.49-0.08,0.8-0.08,0.8h-5.36c0.18,1.14,0.96,1.93,2.32,1.93
		C45.5,100,46.11,99.48,46.43,99.09z M42.07,96.95h3.56c-0.02-1.01-0.65-1.75-1.67-1.75C42.97,95.2,42.25,95.87,42.07,96.95z"/>
</g>
<g>
	<path class="st0" d="M54.33,95.09c0-0.67-0.54-1.09-1.39-1.09c-0.82,0-1.26,0.38-1.26,0.9c0,1.62,4.54,0.38,4.57,3.33
		c0,1.39-1.27,2.27-3.32,2.27c-2.19,0-3.23-0.93-3.51-1.16l1-1.23c0.21,0.2,1.31,0.93,2.47,0.93c0.9,0,1.34-0.29,1.34-0.73
		c0-1.34-4.44-0.51-4.44-3.33c0-1.44,1.27-2.38,3.22-2.38c1.85,0,3.12,0.91,3.12,2.17c0,0.31-0.07,0.52-0.07,0.52L54.3,95.4
		C54.32,95.34,54.33,95.21,54.33,95.09z"/>
</g>
<g>
	<path class="st0" d="M63.36,95.8c0-0.67-0.54-1.09-1.39-1.09c-0.82,0-1.26,0.38-1.26,0.9c0,1.62,4.54,0.38,4.57,3.33
		c0,1.39-1.27,2.27-3.32,2.27c-2.19,0-3.23-0.93-3.51-1.16l1-1.23c0.21,0.2,1.31,0.93,2.47,0.93c0.9,0,1.34-0.29,1.34-0.73
		c0-1.34-4.44-0.51-4.44-3.33c0-1.44,1.27-2.38,3.22-2.38c1.85,0,3.12,0.91,3.12,2.17c0,0.31-0.07,0.52-0.07,0.52l-1.76,0.11
		C63.35,96.04,63.36,95.91,63.36,95.8z"/>
</g>
<path class="st0" d="M3.83,6.74c-0.77,0.01-1.4-0.53-1.41-1.32C2.4,4.65,3.01,4.08,3.78,4.06c0.77-0.01,1.41,0.54,1.43,1.32
	C5.22,6.17,4.6,6.73,3.83,6.74z M2.9,8.02l2.16-0.1l0.13,7.51l-2.16,0.04L2.9,8.02z"/>
<path class="st0" d="M14.93,9.16v3.49c0,0.6-0.48,1.08-1.08,1.08h0c-0.6,0-1.08-0.48-1.08-1.08V9.54c0-0.88-0.44-1.48-1.31-1.48
	c-1.1,0-1.58,0.96-1.58,1.83v2.77c0,0.6-0.48,1.08-1.08,1.08h0c-0.6,0-1.08-0.48-1.08-1.08V6.29L9.4,6.23
	c0.16,0.49,0.27,1.25,0.27,1.56h0.06c0.36-0.88,1.09-1.59,2.41-1.59C13.99,6.2,14.93,7.47,14.93,9.16z"/>
<path class="st0" d="M24.61,10.44v3.49c0,0.6-0.48,1.08-1.08,1.08h0c-0.6,0-1.08-0.48-1.08-1.08v-3.12c0-0.88-0.44-1.48-1.31-1.48
	c-1.1,0-1.58,0.96-1.58,1.83v2.77c0,0.6-0.48,1.08-1.08,1.08h0c-0.6,0-1.08-0.48-1.08-1.08V7.57l1.69-0.06
	c0.16,0.49,0.27,1.25,0.27,1.56h0.06c0.36-0.88,1.09-1.59,2.41-1.59C23.68,7.48,24.61,8.76,24.61,10.44z"/>
<path class="st0" d="M32.91,11.06l1.03,1.18c-0.5,0.66-1.59,1.31-3.2,1.31c-2.51,0-4.01-1.58-4.01-3.82c0-2.22,1.5-3.82,3.8-3.82
	c2.18,0,3.42,1.48,3.42,3.52c0,0.47-0.06,0.79-0.06,0.79h-5.02c0.19,0.99,0.88,1.69,2.11,1.69C32.04,11.91,32.59,11.4,32.91,11.06z
	 M28.87,9.1h3.11c-0.02-0.88-0.55-1.55-1.45-1.55C29.67,7.55,29.03,8.11,28.87,9.1z"/>
<path class="st0" d="M41.53,8.42l-0.57,2.08c-0.25-0.17-0.52-0.27-0.85-0.27c-0.82,0-1.53,0.66-1.53,1.91v3.6h-2.16V8.29l1.69-0.06
	c0.16,0.49,0.27,1.33,0.27,1.64h0.06c0.28-0.95,0.87-1.67,1.99-1.67C40.86,8.2,41.2,8.28,41.53,8.42z"/>
<path class="st0" d="M56.54,2.74L56.54,2.74c0.6,0,1.08,0.48,1.08,1.08v10.06h-2.16V3.82C55.46,3.22,55.94,2.74,56.54,2.74z"/>
<path class="st0" d="M67.82,11.01c0,2.24-1.56,3.82-3.91,3.82c-2.37,0-3.93-1.58-3.93-3.82S61.54,7.2,63.9,7.2
	C66.25,7.2,67.82,8.77,67.82,11.01z M65.62,11.01c0-1.2-0.66-2.05-1.72-2.05c-1.07,0-1.74,0.85-1.74,2.05
	c0,1.21,0.66,2.05,1.74,2.05C64.96,13.06,65.62,12.23,65.62,11.01z"/>
<path class="st0" d="M77.28,10.01c0,2.24-1.56,3.82-3.91,3.82c-2.37,0-3.93-1.58-3.93-3.82S71,6.2,73.37,6.2
	C75.72,6.2,77.28,7.77,77.28,10.01z M75.09,10.01c0-1.2-0.66-2.05-1.72-2.05c-1.07,0-1.74,0.85-1.74,2.05
	c0,1.21,0.66,2.05,1.74,2.05C74.43,12.06,75.09,11.23,75.09,10.01z"/>
<path class="st0" d="M87.22,10.23c0,2.43-1.47,3.82-3.41,3.82c-1.06,0-1.78-0.43-2.21-1.03v4.15h-2.16V6.5l1.7-0.06
	C81.3,6.9,81.41,7.7,81.4,7.91h0.05c0.39-0.87,1.17-1.5,2.48-1.5C85.94,6.41,87.22,8,87.22,10.23z M85.03,10.23c0-1.21-0.66-2-1.7-2
	c-1.04,0-1.72,0.88-1.72,1.75v0.5c0,0.82,0.62,1.75,1.77,1.75C84.38,12.23,85.03,11.44,85.03,10.23z"/>
</svg>
